# xmcd
#
# Track frame offsets:
#       150
#       17157
#       32777
#       45717
#       62682
#       81647
#       93562
#       111290
#       126807
#       139565
#       153995
#       170357
#
# Disc length: 2494 seconds
#
# Revision: 0
# Processed by: cddbd v1.5.1PL0 Copyright (c) Steve Scherf et al.
# Submitted via: WhereIsIt 3.26
#
DISCID=9f09bc0c
DTITLE=05569.이용 - 8집 - New and Best CD2
DYEAR=1900
DGENRE=
TTITLE0=잠들지 않는 시간
TTITLE1=잊혀진 계절
TTITLE2=바람이려오
TTITLE3=서울
TTITLE4=이별뒤의 이야기
TTITLE5=태양의 저편
TTITLE6=첫사랑이야
TTITLE7=그대 그리고 나
TTITLE8=사랑과 행복 그리고 이별
TTITLE9=몰래한 사랑
TTITLE10=멀어진 사람
TTITLE11=세월과 사랑
EXTD=
EXTT0=
EXTT1=
EXTT2=
EXTT3=
EXTT4=
EXTT5=
EXTT6=
EXTT7=
EXTT8=
EXTT9=
EXTT10=
EXTT11=
PLAYORDER=
